<svg width="2897" height="355" viewBox="0 0 2897 355" fill="none" xmlns="http://www.w3.org/2000/svg">
<path d="M2841.28 241.919C2841.28 235.327 2840.26 229.468 2838.21 224.341C2836.3 219.214 2832.86 214.526 2827.88 210.278C2822.9 206.03 2815.87 201.929 2806.79 197.974C2797.85 193.872 2786.43 189.697 2772.51 185.449C2757.28 180.762 2743.21 175.562 2730.32 169.849C2717.58 163.989 2706.45 157.251 2696.92 149.634C2687.4 141.87 2680 133.008 2674.73 123.047C2669.46 112.939 2666.82 101.294 2666.82 88.1104C2666.82 75.0732 2669.53 63.208 2674.95 52.5146C2680.52 41.8213 2688.35 32.5928 2698.46 24.8291C2708.72 16.9189 2720.8 10.8398 2734.72 6.5918C2748.63 2.19727 2764.01 0 2780.86 0C2804.59 0 2825.02 4.39453 2842.16 13.1836C2859.45 21.9727 2872.71 33.7646 2881.93 48.5596C2891.31 63.3545 2896 79.6875 2896 97.5586H2841.28C2841.28 87.0117 2839.01 77.71 2834.47 69.6533C2830.08 61.4502 2823.34 55.0049 2814.26 50.3174C2805.32 45.6299 2793.97 43.2861 2780.2 43.2861C2767.16 43.2861 2756.32 45.2637 2747.68 49.2188C2739.04 53.1738 2732.59 58.5205 2728.34 65.2588C2724.1 71.9971 2721.97 79.6143 2721.97 88.1104C2721.97 94.1162 2723.36 99.6094 2726.15 104.59C2728.93 109.424 2733.18 113.965 2738.89 118.213C2744.6 122.314 2751.78 126.196 2760.42 129.858C2769.07 133.521 2779.25 137.036 2790.97 140.405C2808.69 145.679 2824.15 151.538 2837.33 157.983C2850.51 164.282 2861.5 171.46 2870.29 179.517C2879.08 187.573 2885.67 196.729 2890.06 206.982C2894.46 217.09 2896.66 228.589 2896.66 241.479C2896.66 254.956 2893.95 267.114 2888.53 277.954C2883.11 288.647 2875.34 297.803 2865.23 305.42C2855.27 312.891 2843.26 318.677 2829.2 322.778C2815.28 326.733 2799.76 328.711 2782.62 328.711C2767.24 328.711 2752.08 326.66 2737.13 322.559C2722.34 318.457 2708.86 312.231 2696.7 303.882C2684.55 295.386 2674.88 284.839 2667.7 272.241C2660.52 259.497 2656.93 244.629 2656.93 227.637H2712.08C2712.08 238.037 2713.84 246.899 2717.36 254.224C2721.02 261.548 2726.07 267.554 2732.52 272.241C2738.96 276.782 2746.44 280.151 2754.93 282.349C2763.57 284.546 2772.8 285.645 2782.62 285.645C2795.51 285.645 2806.27 283.813 2814.92 280.151C2823.71 276.489 2830.3 271.362 2834.69 264.771C2839.09 258.179 2841.28 250.562 2841.28 241.919Z" fill="#015EA6"/>
<path d="M2841.28 241.919C2841.28 235.327 2840.26 229.468 2838.21 224.341C2836.3 219.214 2832.86 214.526 2827.88 210.278C2822.9 206.03 2815.87 201.929 2806.79 197.974C2797.85 193.872 2786.43 189.697 2772.51 185.449C2757.28 180.762 2743.21 175.562 2730.32 169.849C2717.58 163.989 2706.45 157.251 2696.92 149.634C2687.4 141.87 2680 133.008 2674.73 123.047C2669.46 112.939 2666.82 101.294 2666.82 88.1104C2666.82 75.0732 2669.53 63.208 2674.95 52.5146C2680.52 41.8213 2688.35 32.5928 2698.46 24.8291C2708.72 16.9189 2720.8 10.8398 2734.72 6.5918C2748.63 2.19727 2764.01 0 2780.86 0C2804.59 0 2825.02 4.39453 2842.16 13.1836C2859.45 21.9727 2872.71 33.7646 2881.93 48.5596C2891.31 63.3545 2896 79.6875 2896 97.5586H2841.28C2841.28 87.0117 2839.01 77.71 2834.47 69.6533C2830.08 61.4502 2823.34 55.0049 2814.26 50.3174C2805.32 45.6299 2793.97 43.2861 2780.2 43.2861C2767.16 43.2861 2756.32 45.2637 2747.68 49.2188C2739.04 53.1738 2732.59 58.5205 2728.34 65.2588C2724.1 71.9971 2721.97 79.6143 2721.97 88.1104C2721.97 94.1162 2723.36 99.6094 2726.15 104.59C2728.93 109.424 2733.18 113.965 2738.89 118.213C2744.6 122.314 2751.78 126.196 2760.42 129.858C2769.07 133.521 2779.25 137.036 2790.97 140.405C2808.69 145.679 2824.15 151.538 2837.33 157.983C2850.51 164.282 2861.5 171.46 2870.29 179.517C2879.08 187.573 2885.67 196.729 2890.06 206.982C2894.46 217.09 2896.66 228.589 2896.66 241.479C2896.66 254.956 2893.95 267.114 2888.53 277.954C2883.11 288.647 2875.34 297.803 2865.23 305.42C2855.27 312.891 2843.26 318.677 2829.2 322.778C2815.28 326.733 2799.76 328.711 2782.62 328.711C2767.24 328.711 2752.08 326.66 2737.13 322.559C2722.34 318.457 2708.86 312.231 2696.7 303.882C2684.55 295.386 2674.88 284.839 2667.7 272.241C2660.52 259.497 2656.93 244.629 2656.93 227.637H2712.08C2712.08 238.037 2713.84 246.899 2717.36 254.224C2721.02 261.548 2726.07 267.554 2732.52 272.241C2738.96 276.782 2746.44 280.151 2754.93 282.349C2763.57 284.546 2772.8 285.645 2782.62 285.645C2795.51 285.645 2806.27 283.813 2814.92 280.151C2823.71 276.489 2830.3 271.362 2834.69 264.771C2839.09 258.179 2841.28 250.562 2841.28 241.919Z" fill="black" fill-opacity="0.2"/>
<path d="M2499.17 47.0215L2403.59 324.316H2345.8L2466.21 4.39453H2503.12L2499.17 47.0215ZM2579.15 324.316L2483.35 47.0215L2479.17 4.39453H2516.31L2637.16 324.316H2579.15ZM2574.54 205.664V249.39H2400.51V205.664H2574.54Z" fill="#015EA6"/>
<path d="M2499.17 47.0215L2403.59 324.316H2345.8L2466.21 4.39453H2503.12L2499.17 47.0215ZM2579.15 324.316L2483.35 47.0215L2479.17 4.39453H2516.31L2637.16 324.316H2579.15ZM2574.54 205.664V249.39H2400.51V205.664H2574.54Z" fill="black" fill-opacity="0.2"/>
<path d="M2151.34 131.836V324.316H2098.39V86.5723H2148.93L2151.34 131.836ZM2224.07 85.0342L2223.63 134.253C2220.41 133.667 2216.89 133.228 2213.09 132.935C2209.42 132.642 2205.76 132.495 2202.1 132.495C2193.02 132.495 2185.03 133.813 2178.15 136.45C2171.26 138.94 2165.48 142.603 2160.79 147.437C2156.25 152.124 2152.73 157.837 2150.24 164.575C2147.75 171.313 2146.29 178.857 2145.85 187.207L2133.76 188.086C2133.76 173.145 2135.23 159.302 2138.16 146.558C2141.09 133.813 2145.48 122.607 2151.34 112.939C2157.35 103.271 2164.82 95.7275 2173.75 90.3076C2182.84 84.8877 2193.31 82.1777 2205.18 82.1777C2208.4 82.1777 2211.84 82.4707 2215.5 83.0566C2219.31 83.6426 2222.17 84.3018 2224.07 85.0342Z" fill="#015EA6"/>
<path d="M2151.34 131.836V324.316H2098.39V86.5723H2148.93L2151.34 131.836ZM2224.07 85.0342L2223.63 134.253C2220.41 133.667 2216.89 133.228 2213.09 132.935C2209.42 132.642 2205.76 132.495 2202.1 132.495C2193.02 132.495 2185.03 133.813 2178.15 136.45C2171.26 138.94 2165.48 142.603 2160.79 147.437C2156.25 152.124 2152.73 157.837 2150.24 164.575C2147.75 171.313 2146.29 178.857 2145.85 187.207L2133.76 188.086C2133.76 173.145 2135.23 159.302 2138.16 146.558C2141.09 133.813 2145.48 122.607 2151.34 112.939C2157.35 103.271 2164.82 95.7275 2173.75 90.3076C2182.84 84.8877 2193.31 82.1777 2205.18 82.1777C2208.4 82.1777 2211.84 82.4707 2215.5 83.0566C2219.31 83.6426 2222.17 84.3018 2224.07 85.0342Z" fill="black" fill-opacity="0.2"/>
<path d="M2033.57 57.7881L1887.89 354.858H1856.47L2002.15 57.7881H2033.57ZM1833.62 208.081V203.027C1833.62 185.889 1836.11 169.995 1841.09 155.347C1846.07 140.552 1853.25 127.734 1862.62 116.895C1872.14 105.908 1883.72 97.4121 1897.34 91.4062C1911.11 85.2539 1926.64 82.1777 1943.92 82.1777C1961.35 82.1777 1976.88 85.2539 1990.5 91.4062C2004.27 97.4121 2015.92 105.908 2025.44 116.895C2034.96 127.734 2042.21 140.552 2047.19 155.347C2052.17 169.995 2054.66 185.889 2054.66 203.027V208.081C2054.66 225.22 2052.17 241.113 2047.19 255.762C2042.21 270.41 2034.96 283.228 2025.44 294.214C2015.92 305.054 2004.35 313.55 1990.72 319.702C1977.1 325.708 1961.65 328.711 1944.36 328.711C1926.93 328.711 1911.33 325.708 1897.56 319.702C1883.94 313.55 1872.36 305.054 1862.84 294.214C1853.32 283.228 1846.07 270.41 1841.09 255.762C1836.11 241.113 1833.62 225.22 1833.62 208.081ZM1886.57 203.027V208.081C1886.57 218.774 1887.67 228.882 1889.87 238.403C1892.07 247.925 1895.51 256.274 1900.2 263.452C1904.88 270.63 1910.89 276.27 1918.21 280.371C1925.54 284.473 1934.25 286.523 1944.36 286.523C1954.17 286.523 1962.67 284.473 1969.85 280.371C1977.17 276.27 1983.18 270.63 1987.87 263.452C1992.55 256.274 1996 247.925 1998.19 238.403C2000.54 228.882 2001.71 218.774 2001.71 208.081V203.027C2001.71 192.48 2000.54 182.52 1998.19 173.145C1996 163.623 1992.48 155.2 1987.65 147.876C1982.96 140.552 1976.95 134.839 1969.63 130.737C1962.45 126.489 1953.88 124.365 1943.92 124.365C1933.96 124.365 1925.32 126.489 1917.99 130.737C1910.82 134.839 1904.88 140.552 1900.2 147.876C1895.51 155.2 1892.07 163.623 1889.87 173.145C1887.67 182.52 1886.57 192.48 1886.57 203.027Z" fill="#015EA6"/>
<path d="M2033.57 57.7881L1887.89 354.858H1856.47L2002.15 57.7881H2033.57ZM1833.62 208.081V203.027C1833.62 185.889 1836.11 169.995 1841.09 155.347C1846.07 140.552 1853.25 127.734 1862.62 116.895C1872.14 105.908 1883.72 97.4121 1897.34 91.4062C1911.11 85.2539 1926.64 82.1777 1943.92 82.1777C1961.35 82.1777 1976.88 85.2539 1990.5 91.4062C2004.27 97.4121 2015.92 105.908 2025.44 116.895C2034.96 127.734 2042.21 140.552 2047.19 155.347C2052.17 169.995 2054.66 185.889 2054.66 203.027V208.081C2054.66 225.22 2052.17 241.113 2047.19 255.762C2042.21 270.41 2034.96 283.228 2025.44 294.214C2015.92 305.054 2004.35 313.55 1990.72 319.702C1977.1 325.708 1961.65 328.711 1944.36 328.711C1926.93 328.711 1911.33 325.708 1897.56 319.702C1883.94 313.55 1872.36 305.054 1862.84 294.214C1853.32 283.228 1846.07 270.41 1841.09 255.762C1836.11 241.113 1833.62 225.22 1833.62 208.081ZM1886.57 203.027V208.081C1886.57 218.774 1887.67 228.882 1889.87 238.403C1892.07 247.925 1895.51 256.274 1900.2 263.452C1904.88 270.63 1910.89 276.27 1918.21 280.371C1925.54 284.473 1934.25 286.523 1944.36 286.523C1954.17 286.523 1962.67 284.473 1969.85 280.371C1977.17 276.27 1983.18 270.63 1987.87 263.452C1992.55 256.274 1996 247.925 1998.19 238.403C2000.54 228.882 2001.71 218.774 2001.71 208.081V203.027C2001.71 192.48 2000.54 182.52 1998.19 173.145C1996 163.623 1992.48 155.2 1987.65 147.876C1982.96 140.552 1976.95 134.839 1969.63 130.737C1962.45 126.489 1953.88 124.365 1943.92 124.365C1933.96 124.365 1925.32 126.489 1917.99 130.737C1910.82 134.839 1904.88 140.552 1900.2 147.876C1895.51 155.2 1892.07 163.623 1889.87 173.145C1887.67 182.52 1886.57 192.48 1886.57 203.027Z" fill="black" fill-opacity="0.2"/>
<path d="M1565.55 4.39453H1678.71C1703.03 4.39453 1723.75 8.05664 1740.89 15.3809C1758.03 22.7051 1771.14 33.5449 1780.22 47.9004C1789.45 62.1094 1794.07 79.6875 1794.07 100.635C1794.07 116.602 1791.14 130.664 1785.28 142.822C1779.42 154.98 1771.14 165.234 1760.45 173.584C1749.76 181.787 1737.01 188.159 1722.22 192.7L1705.52 200.83H1603.78L1603.34 157.104H1679.59C1692.77 157.104 1703.76 154.761 1712.55 150.073C1721.34 145.386 1727.93 139.014 1732.32 130.957C1736.87 122.754 1739.14 113.525 1739.14 103.271C1739.14 92.1387 1736.94 82.4707 1732.54 74.2676C1728.3 65.918 1721.7 59.5459 1712.77 55.1514C1703.83 50.6104 1692.48 48.3398 1678.71 48.3398H1620.7V324.316H1565.55V4.39453ZM1748.14 324.316L1673 180.615L1730.79 180.396L1807.03 321.46V324.316H1748.14Z" fill="#015EA6"/>
<path d="M1565.55 4.39453H1678.71C1703.03 4.39453 1723.75 8.05664 1740.89 15.3809C1758.03 22.7051 1771.14 33.5449 1780.22 47.9004C1789.45 62.1094 1794.07 79.6875 1794.07 100.635C1794.07 116.602 1791.14 130.664 1785.28 142.822C1779.42 154.98 1771.14 165.234 1760.45 173.584C1749.76 181.787 1737.01 188.159 1722.22 192.7L1705.52 200.83H1603.78L1603.34 157.104H1679.59C1692.77 157.104 1703.76 154.761 1712.55 150.073C1721.34 145.386 1727.93 139.014 1732.32 130.957C1736.87 122.754 1739.14 113.525 1739.14 103.271C1739.14 92.1387 1736.94 82.4707 1732.54 74.2676C1728.3 65.918 1721.7 59.5459 1712.77 55.1514C1703.83 50.6104 1692.48 48.3398 1678.71 48.3398H1620.7V324.316H1565.55V4.39453ZM1748.14 324.316L1673 180.615L1730.79 180.396L1807.03 321.46V324.316H1748.14Z" fill="black" fill-opacity="0.2"/>
<path d="M1214.21 150.293L1269.36 113.159C1278.59 107.007 1285.18 101.001 1289.14 95.1416C1293.09 89.1357 1295.07 81.665 1295.07 72.7295C1295.07 65.1123 1292.14 58.0811 1286.28 51.6357C1280.42 45.1904 1272.14 41.9678 1261.45 41.9678C1253.98 41.9678 1247.68 43.7256 1242.55 47.2412C1237.43 50.6104 1233.54 55.1514 1230.91 60.8643C1228.42 66.4307 1227.17 72.6562 1227.17 79.541C1227.17 86.1328 1228.86 92.9443 1232.23 99.9756C1235.6 106.86 1240.21 114.111 1246.07 121.729C1251.93 129.199 1258.52 137.256 1265.84 145.898L1417.02 324.316H1355.71L1232.23 179.077C1221.53 166.187 1212.08 154.395 1203.88 143.701C1195.68 132.861 1189.31 122.388 1184.77 112.28C1180.22 102.026 1177.95 91.4795 1177.95 80.6396C1177.95 63.9404 1181.4 49.585 1188.28 37.5732C1195.17 25.5615 1204.91 16.333 1217.5 9.8877C1230.1 3.2959 1244.82 0 1261.67 0C1277.93 0 1291.92 3.2959 1303.64 9.8877C1315.5 16.333 1324.58 24.9023 1330.88 35.5957C1337.33 46.2891 1340.55 58.0078 1340.55 70.752C1340.55 80.8594 1338.72 90.0879 1335.06 98.4375C1331.4 106.787 1326.34 114.404 1319.9 121.289C1313.45 128.174 1305.98 134.692 1297.49 140.845L1230.47 189.624C1222.71 195.923 1216.92 202.002 1213.11 207.861C1209.45 213.574 1207.03 218.848 1205.86 223.682C1204.69 228.516 1204.1 232.764 1204.1 236.426C1204.1 245.801 1206.08 254.297 1210.03 261.914C1214.14 269.531 1220.07 275.61 1227.83 280.151C1235.74 284.546 1245.34 286.743 1256.62 286.743C1268.77 286.743 1280.57 284.033 1291.99 278.613C1303.42 273.047 1313.67 265.21 1322.75 255.103C1331.84 244.995 1339.01 232.91 1344.29 218.848C1349.71 204.785 1352.42 189.185 1352.42 172.046H1398.12C1398.12 187.573 1396.58 202.295 1393.51 216.211C1390.58 230.127 1385.82 243.018 1379.22 254.883C1372.78 266.748 1364.28 277.368 1353.74 286.743C1352.71 287.769 1351.54 289.087 1350.22 290.698C1349.05 292.163 1347.88 293.408 1346.7 294.434C1334.11 306.006 1319.97 314.648 1304.3 320.361C1288.77 325.928 1272.22 328.711 1254.64 328.711C1233.4 328.711 1215.01 324.829 1199.49 317.065C1183.96 309.302 1171.95 298.608 1163.45 284.985C1155.1 271.362 1150.93 255.762 1150.93 238.184C1150.93 225.146 1153.64 213.721 1159.06 203.906C1164.48 193.945 1171.88 184.717 1181.25 176.221C1190.77 167.578 1201.76 158.936 1214.21 150.293Z" fill="#015EA6"/>
<path d="M1214.21 150.293L1269.36 113.159C1278.59 107.007 1285.18 101.001 1289.14 95.1416C1293.09 89.1357 1295.07 81.665 1295.07 72.7295C1295.07 65.1123 1292.14 58.0811 1286.28 51.6357C1280.42 45.1904 1272.14 41.9678 1261.45 41.9678C1253.98 41.9678 1247.68 43.7256 1242.55 47.2412C1237.43 50.6104 1233.54 55.1514 1230.91 60.8643C1228.42 66.4307 1227.17 72.6562 1227.17 79.541C1227.17 86.1328 1228.86 92.9443 1232.23 99.9756C1235.6 106.86 1240.21 114.111 1246.07 121.729C1251.93 129.199 1258.52 137.256 1265.84 145.898L1417.02 324.316H1355.71L1232.23 179.077C1221.53 166.187 1212.08 154.395 1203.88 143.701C1195.68 132.861 1189.31 122.388 1184.77 112.28C1180.22 102.026 1177.95 91.4795 1177.95 80.6396C1177.95 63.9404 1181.4 49.585 1188.28 37.5732C1195.17 25.5615 1204.91 16.333 1217.5 9.8877C1230.1 3.2959 1244.82 0 1261.67 0C1277.93 0 1291.92 3.2959 1303.64 9.8877C1315.5 16.333 1324.58 24.9023 1330.88 35.5957C1337.33 46.2891 1340.55 58.0078 1340.55 70.752C1340.55 80.8594 1338.72 90.0879 1335.06 98.4375C1331.4 106.787 1326.34 114.404 1319.9 121.289C1313.45 128.174 1305.98 134.692 1297.49 140.845L1230.47 189.624C1222.71 195.923 1216.92 202.002 1213.11 207.861C1209.45 213.574 1207.03 218.848 1205.86 223.682C1204.69 228.516 1204.1 232.764 1204.1 236.426C1204.1 245.801 1206.08 254.297 1210.03 261.914C1214.14 269.531 1220.07 275.61 1227.83 280.151C1235.74 284.546 1245.34 286.743 1256.62 286.743C1268.77 286.743 1280.57 284.033 1291.99 278.613C1303.42 273.047 1313.67 265.21 1322.75 255.103C1331.84 244.995 1339.01 232.91 1344.29 218.848C1349.71 204.785 1352.42 189.185 1352.42 172.046H1398.12C1398.12 187.573 1396.58 202.295 1393.51 216.211C1390.58 230.127 1385.82 243.018 1379.22 254.883C1372.78 266.748 1364.28 277.368 1353.74 286.743C1352.71 287.769 1351.54 289.087 1350.22 290.698C1349.05 292.163 1347.88 293.408 1346.7 294.434C1334.11 306.006 1319.97 314.648 1304.3 320.361C1288.77 325.928 1272.22 328.711 1254.64 328.711C1233.4 328.711 1215.01 324.829 1199.49 317.065C1183.96 309.302 1171.95 298.608 1163.45 284.985C1155.1 271.362 1150.93 255.762 1150.93 238.184C1150.93 225.146 1153.64 213.721 1159.06 203.906C1164.48 193.945 1171.88 184.717 1181.25 176.221C1190.77 167.578 1201.76 158.936 1214.21 150.293Z" fill="black" fill-opacity="0.2"/>
<path d="M849.463 137.329V324.316H796.509V86.5723H846.387L849.463 137.329ZM840.015 196.655L822.876 196.436C823.022 179.59 825.366 164.136 829.907 150.073C834.595 136.011 841.04 123.926 849.243 113.818C857.593 103.711 867.554 95.9473 879.126 90.5273C890.698 84.9609 903.589 82.1777 917.798 82.1777C929.224 82.1777 939.551 83.7891 948.779 87.0117C958.154 90.0879 966.138 95.1416 972.729 102.173C979.468 109.204 984.595 118.359 988.11 129.639C991.626 140.771 993.384 154.468 993.384 170.728V324.316H940.21V170.508C940.21 159.082 938.525 150.073 935.156 143.481C931.934 136.743 927.173 131.982 920.874 129.199C914.722 126.27 907.031 124.805 897.803 124.805C888.721 124.805 880.591 126.709 873.413 130.518C866.235 134.326 860.156 139.526 855.176 146.118C850.342 152.71 846.606 160.327 843.97 168.97C841.333 177.612 840.015 186.841 840.015 196.655Z" fill="#015EA6"/>
<path d="M849.463 137.329V324.316H796.509V86.5723H846.387L849.463 137.329ZM840.015 196.655L822.876 196.436C823.022 179.59 825.366 164.136 829.907 150.073C834.595 136.011 841.04 123.926 849.243 113.818C857.593 103.711 867.554 95.9473 879.126 90.5273C890.698 84.9609 903.589 82.1777 917.798 82.1777C929.224 82.1777 939.551 83.7891 948.779 87.0117C958.154 90.0879 966.138 95.1416 972.729 102.173C979.468 109.204 984.595 118.359 988.11 129.639C991.626 140.771 993.384 154.468 993.384 170.728V324.316H940.21V170.508C940.21 159.082 938.525 150.073 935.156 143.481C931.934 136.743 927.173 131.982 920.874 129.199C914.722 126.27 907.031 124.805 897.803 124.805C888.721 124.805 880.591 126.709 873.413 130.518C866.235 134.326 860.156 139.526 855.176 146.118C850.342 152.71 846.606 160.327 843.97 168.97C841.333 177.612 840.015 186.841 840.015 196.655Z" fill="black" fill-opacity="0.2"/>
<path d="M598.975 137.329V324.316H546.021V86.5723H595.898L598.975 137.329ZM589.526 196.655L572.388 196.436C572.534 179.59 574.878 164.136 579.419 150.073C584.106 136.011 590.552 123.926 598.755 113.818C607.104 103.711 617.065 95.9473 628.638 90.5273C640.21 84.9609 653.101 82.1777 667.31 82.1777C678.735 82.1777 689.062 83.7891 698.291 87.0117C707.666 90.0879 715.649 95.1416 722.241 102.173C728.979 109.204 734.106 118.359 737.622 129.639C741.138 140.771 742.896 154.468 742.896 170.728V324.316H689.722V170.508C689.722 159.082 688.037 150.073 684.668 143.481C681.445 136.743 676.685 131.982 670.386 129.199C664.233 126.27 656.543 124.805 647.314 124.805C638.232 124.805 630.103 126.709 622.925 130.518C615.747 134.326 609.668 139.526 604.688 146.118C599.854 152.71 596.118 160.327 593.481 168.97C590.845 177.612 589.526 186.841 589.526 196.655Z" fill="#015EA6"/>
<path d="M598.975 137.329V324.316H546.021V86.5723H595.898L598.975 137.329ZM589.526 196.655L572.388 196.436C572.534 179.59 574.878 164.136 579.419 150.073C584.106 136.011 590.552 123.926 598.755 113.818C607.104 103.711 617.065 95.9473 628.638 90.5273C640.21 84.9609 653.101 82.1777 667.31 82.1777C678.735 82.1777 689.062 83.7891 698.291 87.0117C707.666 90.0879 715.649 95.1416 722.241 102.173C728.979 109.204 734.106 118.359 737.622 129.639C741.138 140.771 742.896 154.468 742.896 170.728V324.316H689.722V170.508C689.722 159.082 688.037 150.073 684.668 143.481C681.445 136.743 676.685 131.982 670.386 129.199C664.233 126.27 656.543 124.805 647.314 124.805C638.232 124.805 630.103 126.709 622.925 130.518C615.747 134.326 609.668 139.526 604.688 146.118C599.854 152.71 596.118 160.327 593.481 168.97C590.845 177.612 589.526 186.841 589.526 196.655Z" fill="black" fill-opacity="0.2"/>
<path d="M437.915 276.636V163.257C437.915 154.761 436.377 147.437 433.301 141.284C430.225 135.132 425.537 130.371 419.238 127.002C413.086 123.633 405.322 121.948 395.947 121.948C387.305 121.948 379.834 123.413 373.535 126.343C367.236 129.272 362.329 133.228 358.813 138.208C355.298 143.188 353.54 148.828 353.54 155.127H300.806C300.806 145.752 303.076 136.67 307.617 127.881C312.158 119.092 318.75 111.255 327.393 104.37C336.035 97.4854 346.362 92.0654 358.374 88.1104C370.386 84.1553 383.862 82.1777 398.804 82.1777C416.675 82.1777 432.495 85.1807 446.265 91.1865C460.181 97.1924 471.094 106.274 479.004 118.433C487.061 130.444 491.089 145.532 491.089 163.696V269.385C491.089 280.225 491.821 289.966 493.286 298.608C494.897 307.104 497.168 314.502 500.098 320.801V324.316H445.825C443.335 318.604 441.357 311.353 439.893 302.563C438.574 293.628 437.915 284.985 437.915 276.636ZM445.605 179.736L446.045 212.476H408.032C398.218 212.476 389.575 213.428 382.104 215.332C374.634 217.09 368.408 219.727 363.428 223.242C358.447 226.758 354.712 231.006 352.222 235.986C349.731 240.967 348.486 246.606 348.486 252.905C348.486 259.204 349.951 264.99 352.881 270.264C355.811 275.391 360.059 279.419 365.625 282.349C371.338 285.278 378.223 286.743 386.279 286.743C397.119 286.743 406.567 284.546 414.624 280.151C422.827 275.61 429.272 270.117 433.96 263.672C438.647 257.08 441.138 250.854 441.431 244.995L458.569 268.506C456.812 274.512 453.809 280.957 449.561 287.842C445.312 294.727 439.746 301.318 432.861 307.617C426.123 313.77 417.993 318.823 408.472 322.778C399.097 326.733 388.257 328.711 375.952 328.711C360.425 328.711 346.582 325.635 334.424 319.482C322.266 313.184 312.744 304.761 305.859 294.214C298.975 283.521 295.532 271.436 295.532 257.959C295.532 245.361 297.876 234.229 302.563 224.561C307.397 214.746 314.429 206.543 323.657 199.951C333.032 193.359 344.458 188.379 357.935 185.01C371.411 181.494 386.792 179.736 404.077 179.736H445.605Z" fill="#015EA6"/>
<path d="M437.915 276.636V163.257C437.915 154.761 436.377 147.437 433.301 141.284C430.225 135.132 425.537 130.371 419.238 127.002C413.086 123.633 405.322 121.948 395.947 121.948C387.305 121.948 379.834 123.413 373.535 126.343C367.236 129.272 362.329 133.228 358.813 138.208C355.298 143.188 353.54 148.828 353.54 155.127H300.806C300.806 145.752 303.076 136.67 307.617 127.881C312.158 119.092 318.75 111.255 327.393 104.37C336.035 97.4854 346.362 92.0654 358.374 88.1104C370.386 84.1553 383.862 82.1777 398.804 82.1777C416.675 82.1777 432.495 85.1807 446.265 91.1865C460.181 97.1924 471.094 106.274 479.004 118.433C487.061 130.444 491.089 145.532 491.089 163.696V269.385C491.089 280.225 491.821 289.966 493.286 298.608C494.897 307.104 497.168 314.502 500.098 320.801V324.316H445.825C443.335 318.604 441.357 311.353 439.893 302.563C438.574 293.628 437.915 284.985 437.915 276.636ZM445.605 179.736L446.045 212.476H408.032C398.218 212.476 389.575 213.428 382.104 215.332C374.634 217.09 368.408 219.727 363.428 223.242C358.447 226.758 354.712 231.006 352.222 235.986C349.731 240.967 348.486 246.606 348.486 252.905C348.486 259.204 349.951 264.99 352.881 270.264C355.811 275.391 360.059 279.419 365.625 282.349C371.338 285.278 378.223 286.743 386.279 286.743C397.119 286.743 406.567 284.546 414.624 280.151C422.827 275.61 429.272 270.117 433.96 263.672C438.647 257.08 441.138 250.854 441.431 244.995L458.569 268.506C456.812 274.512 453.809 280.957 449.561 287.842C445.312 294.727 439.746 301.318 432.861 307.617C426.123 313.77 417.993 318.823 408.472 322.778C399.097 326.733 388.257 328.711 375.952 328.711C360.425 328.711 346.582 325.635 334.424 319.482C322.266 313.184 312.744 304.761 305.859 294.214C298.975 283.521 295.532 271.436 295.532 257.959C295.532 245.361 297.876 234.229 302.563 224.561C307.397 214.746 314.429 206.543 323.657 199.951C333.032 193.359 344.458 188.379 357.935 185.01C371.411 181.494 386.792 179.736 404.077 179.736H445.605Z" fill="black" fill-opacity="0.2"/>
<path d="M138.428 265.869L222.583 4.39453H283.447L168.75 324.316H127.661L138.428 265.869ZM60.6445 4.39453L144.141 265.869L155.566 324.316H114.258L0 4.39453H60.6445Z" fill="#015EA6"/>
<path d="M138.428 265.869L222.583 4.39453H283.447L168.75 324.316H127.661L138.428 265.869ZM60.6445 4.39453L144.141 265.869L155.566 324.316H114.258L0 4.39453H60.6445Z" fill="black" fill-opacity="0.2"/>
</svg>
